Sparks-Dotline-Extrathick.ufo
<glyph name="exclam" format="1">
	<unicode hex="0021"/>
	<advance width="224"/>
	<outline>
		<contour>
			<point x="61" y="100" type="line"/>
			<point x="61" y="0" type="line"/>
			<point x="163" y="0" type="line"/>
			<point x="163" y="100" type="line"/>
		</contour>
		<contour>
			<point x="51" y="500" type="line"/>
			<point x="81" y="150" type="line"/>
			<point x="143" y="150" type="line"/>
			<point x="173" y="500" type="line"/>
		</contour>
	</outline>
</glyph>
<glyph name="hyphen" format="1">
	<unicode hex="002D"/>
	<advance width="340"/>
	<outline>
		<contour>
			<point x="45" y="213" type="line"/>
			<point x="295" y="213" type="line"/>
			<point x="295" y="285" type="line"/>
			<point x="45" y="285" type="line"/>
		</contour>
	</outline>
</glyph>
<glyph name="six" format="1">
	<unicode hex="0036"/>
	<advance width="450"/>
	<outline>
		<contour>
			<point x="247" y="333" type="curve" smooth="yes"/>
			<point x="196" y="333"/>
			<point x="151" y="311"/>
			<point x="125" y="278" type="curve"/>
			<point x="123" y="278" type="line"/>
			<point x="130" y="380"/>
			<point x="172" y="441"/>
			<point x="243" y="441" type="curve" smooth="yes"/>
			<point x="296" y="441"/>
			<point x="321" y="415"/>
			<point x="329" y="375" type="curve"/>
			<point x="408" y="375" type="line"/>
			<point x="405" y="410"/>
			<point x="390" y="436"/>
			<point x="371" y="458" type="curve" smooth="yes"/>
			<point x="341" y="492"/>
			<point x="304" y="510"/>
			<point x="246" y="510" type="curve" smooth="yes"/>
			<point x="112" y="510"/>
			<point x="40" y="392"/>
			<point x="40" y="235" type="curve"/>
			<point x="40" y="76"/>
			<point x="111" y="-10"/>
			<point x="231" y="-10" type="curve" smooth="yes"/>
			<point x="344" y="-10"/>
			<point x="419" y="63"/>
			<point x="419" y="166" type="curve" smooth="yes"/>
			<point x="419" y="274"/>
			<point x="348" y="333"/>
		</contour>
		<contour>
			<point x="234" y="61" type="curve" smooth="yes"/>
			<point x="169" y="61"/>
			<point x="132" y="109"/>
			<point x="132" y="165" type="curve" smooth="yes"/>
			<point x="132" y="223"/>
			<point x="168" y="265"/>
			<point x="234" y="265" type="curve" smooth="yes"/>
			<point x="300" y="265"/>
			<point x="337" y="220"/>
			<point x="337" y="163" type="curve" smooth="yes"/>
			<point x="337" y="107"/>
			<point x="301" y="61"/>
		</contour>
	</outline>
</glyph>
<glyph name="a" format="1">
	<unicode hex="0061"/>
	<advance width="450"/>
	<outline>
		<contour>
			<point x="79" y="98" type="line"/>
			<point x="358" y="98" type="line"/>
			<point x="358" y="170" type="line"/>
			<point x="79" y="170" type="line"/>
		</contour>
		<contour>
			<point x="1" y="0" type="line"/>
			<point x="86" y="0" type="line"/>
			<point x="206" y="346" type="line" smooth="yes"/>
			<point x="211" y="361"/>
			<point x="219" y="385"/>
			<point x="224" y="404" type="curve"/>
			<point x="226" y="404" type="line"/>
			<point x="230" y="385"/>
			<point x="238" y="361"/>
			<point x="243" y="346" type="curve" smooth="yes"/>
			<point x="361" y="0" type="line"/>
			<point x="449" y="0" type="line"/>
			<point x="267" y="500" type="line"/>
			<point x="183" y="500" type="line"/>
		</contour>
	</outline>
</glyph>
<glyph name="b" format="1">
	<unicode hex="0062"/>
	<advance width="456"/>
	<outline>
		<contour>
			<point x="254" y="0" type="line" smooth="yes"/>
			<point x="365" y="0"/>
			<point x="429" y="53"/>
			<point x="429" y="146" type="curve" smooth="yes"/>
			<point x="429" y="205"/>
			<point x="400" y="240"/>
			<point x="351" y="263" type="curve"/>
			<point x="351" y="265" type="line"/>
			<point x="386" y="283"/>
			<point x="413" y="320"/>
			<point x="413" y="368" type="curve" smooth="yes"/>
			<point x="413" y="455"/>
			<point x="355" y="500"/>
			<point x="248" y="500" type="curve" smooth="yes"/>
			<point x="52" y="500" type="line"/>
			<point x="52" y="0" type="line"/>
		</contour>
		<contour>
			<point x="134" y="294" type="line"/>
			<point x="134" y="428" type="line"/>
			<point x="240" y="428" type="line" smooth="yes"/>
			<point x="297" y="428"/>
			<point x="328" y="410"/>
			<point x="328" y="363" type="curve" smooth="yes"/>
			<point x="328" y="317"/>
			<point x="297" y="294"/>
			<point x="240" y="294" type="curve" smooth="yes"/>
		</contour>
		<contour>
			<point x="244" y="73" type="curve" smooth="yes"/>
			<point x="134" y="73" type="line"/>
			<point x="134" y="225" type="line"/>
			<point x="244" y="225" type="line" smooth="yes"/>
			<point x="312" y="225"/>
			<point x="344" y="201"/>
			<point x="344" y="150" type="curve" smooth="yes"/>
			<point x="344" y="99"/>
			<point x="312" y="73"/>
		</contour>
	</outline>
</glyph>
<glyph name="i" format="1">
	<unicode hex="0069"/>
	<advance width="187"/>
	<outline>
		<contour>
			<point x="52" y="0" type="line"/>
			<point x="135" y="0" type="line"/>
			<point x="135" y="500" type="line"/>
			<point x="52" y="500" type="line"/>
		</contour>
	</outline>
</glyph>
<glyph name="t" format="1">
	<unicode hex="0074"/>
	<advance width="395"/>
	<outline>
		<contour>
			<point x="156" y="0" type="line"/>
			<point x="239" y="0" type="line"/>
			<point x="239" y="428" type="line"/>
			<point x="392" y="428" type="line"/>
			<point x="392" y="500" type="line"/>
			<point x="3" y="500" type="line"/>
			<point x="3" y="428" type="line"/>
			<point x="156" y="428" type="line"/>
		</contour>
	</outline>
</glyph>
<glyph name="currency" format="1">
	<unicode hex="00A4"/>
	<advance width="450"/>
	<outline>
		<contour>
			<point x="18" y="89" type="line"/>
			<point x="64" y="43" type="line"/>
			<point x="119" y="98" type="line"/>
			<point x="149" y="76"/>
			<point x="185" y="64"/>
			<point x="225" y="64" type="curve" smooth="yes"/>
			<point x="265" y="64"/>
			<point x="301" y="76"/>
			<point x="331" y="98" type="curve"/>
			<point x="386" y="43" type="line"/>
			<point x="432" y="89" type="line"/>
			<point x="377" y="144" type="line"/>
			<point x="398" y="174"/>
			<point x="410" y="210"/>
			<point x="410" y="249" type="curve" smooth="yes"/>
			<point x="410" y="289"/>
			<point x="398" y="325"/>
			<point x="376" y="355" type="curve"/>
			<point x="432" y="411" type="line"/>
			<point x="386" y="457" type="line"/>
			<point x="330" y="401" type="line"/>
			<point x="300" y="422"/>
			<point x="264" y="434"/>
			<point x="225" y="434" type="curve" smooth="yes"/>
			<point x="186" y="434"/>
			<point x="149" y="422"/>
			<point x="120" y="401" type="curve"/>
			<point x="64" y="457" type="line"/>
			<point x="18" y="411" type="line"/>
			<point x="73" y="356" type="line"/>
			<point x="52" y="326"/>
			<point x="40" y="289"/>
			<point x="40" y="249" type="curve" smooth="yes"/>
			<point x="40" y="210"/>
			<point x="52" y="174"/>
			<point x="73" y="144" type="curve"/>
		</contour>
		<contour>
			<point x="225" y="146" type="curve" smooth="yes"/>
			<point x="167" y="146"/>
			<point x="124" y="191"/>
			<point x="124" y="249" type="curve" smooth="yes"/>
			<point x="124" y="307"/>
			<point x="167" y="352"/>
			<point x="225" y="352" type="curve" smooth="yes"/>
			<point x="283" y="352"/>
			<point x="326" y="308"/>
			<point x="326" y="249" type="curve" smooth="yes"/>
			<point x="326" y="191"/>
			<point x="283" y="146"/>
		</contour>
	</outline>
</glyph>
<glyph name="multiply" format="1">
	<unicode hex="00D7"/>
	<advance width="450"/>
	<outline>
		<contour>
			<point x="109" y="86" type="line"/>
			<point x="225" y="202" type="line"/>
			<point x="341" y="86" type="line"/>
			<point x="385" y="130" type="line"/>
			<point x="270" y="246" type="line"/>
			<point x="385" y="362" type="line"/>
			<point x="341" y="407" type="line"/>
			<point x="225" y="291" type="line"/>
			<point x="109" y="407" type="line"/>
			<point x="65" y="362" type="line"/>
			<point x="180" y="246" type="line"/>
			<point x="65" y="130" type="line"/>
		</contour>
	</outline>
</glyph>
<glyph name="oe" format="1">
	<unicode hex="0153"/>
	<advance width="618"/>
	<outline>
		<contour>
			<point x="26" y="250" type="curve" smooth="yes"/>
			<point x="26" y="80"/>
			<point x="123" y="0"/>
			<point x="284" y="0" type="curve" smooth="yes"/>
			<point x="591" y="0" type="line"/>
			<point x="591" y="72" type="line"/>
			<point x="380" y="72" type="line"/>
			<point x="380" y="219" type="line"/>
			<point x="552" y="219" type="line"/>
			<point x="552" y="291" type="line"/>
			<point x="380" y="291" type="line"/>
			<point x="380" y="428" type="line"/>
			<point x="585" y="428" type="line"/>
			<point x="585" y="500" type="line"/>
			<point x="278" y="500" type="line" smooth="yes"/>
			<point x="116" y="500"/>
			<point x="26" y="421"/>
		</contour>
		<contour>
			<point x="282" y="428" type="curve" smooth="yes"/>
			<point x="298" y="428" type="line"/>
			<point x="298" y="72" type="line"/>
			<point x="280" y="72" type="line" smooth="yes"/>
			<point x="157" y="72"/>
			<point x="109" y="132"/>
			<point x="109" y="254" type="curve" smooth="yes"/>
			<point x="109" y="377"/>
			<point x="159" y="428"/>
		</contour>
	</outline>
</glyph>
<glyph name="caron" format="1">
	<unicode hex="02C7"/>
	<advance width="418"/>
	<outline>
		<contour>
			<point x="257" y="570" type="line"/>
			<point x="368" y="670" type="line"/>
			<point x="273" y="670" type="line"/>
			<point x="209" y="611" type="line"/>
			<point x="145" y="670" type="line"/>
			<point x="50" y="670" type="line"/>
			<point x="161" y="570" type="line"/>
		</contour>
	</outline>
</glyph>
<glyph name="mu" format="1">
	<unicode hex="03BC"/>
	<advance width="496"/>
	<outline>
		<contour>
			<point x="50" y="-150" type="line"/>
			<point x="133" y="-150" type="line"/>
			<point x="133" y="15" type="line"/>
			<point x="164" y="-2"/>
			<point x="199" y="-10"/>
			<point x="243" y="-10" type="curve" smooth="yes"/>
			<point x="289" y="-10"/>
			<point x="334" y="11"/>
			<point x="359" y="43" type="curve"/>
			<point x="361" y="43" type="line"/>
			<point x="361" y="0" type="line"/>
			<point x="444" y="0" type="line"/>
			<point x="444" y="500" type="line"/>
			<point x="361" y="500" type="line"/>
			<point x="361" y="196" type="line" smooth="yes"/>
			<point x="361" y="106"/>
			<point x="322" y="66"/>
			<point x="247" y="66" type="curve" smooth="yes"/>
			<point x="172" y="66"/>
			<point x="133" y="106"/>
			<point x="133" y="196" type="curve" smooth="yes"/>
			<point x="133" y="500" type="line"/>
			<point x="50" y="500" type="line"/>
		</contour>
	</outline>
</glyph>
<glyph name="emdash" format="1">
	<unicode hex="2014"/>
	<advance width="620"/>
	<outline>
		<contour>
			<point x="43" y="218" type="line"/>
			<point x="577" y="218" type="line"/>
			<point x="577" y="276" type="line"/>
			<point x="43" y="276" type="line"/>
		</contour>
	</outline>
</glyph>
<glyph name="Euro" format="1">
	<unicode hex="20AC"/>
	<advance width="440"/>
	<outline>
		<contour>
			<point x="350" y="111" type="line"/>
			<point x="341" y="81"/>
			<point x="315" y="62"/>
			<point x="280" y="62" type="curve" smooth="yes"/>
			<point x="190" y="62"/>
			<point x="159" y="141"/>
			<point x="159" y="248" type="curve"/>
			<point x="159" y="356"/>
			<point x="184" y="438"/>
			<point x="274" y="438" type="curve" smooth="yes"/>
			<point x="311" y="438"/>
			<point x="343" y="414"/>
			<point x="351" y="379" type="curve"/>
			<point x="430" y="379" type="line"/>
			<point x="415" y="457"/>
			<point x="353" y="509"/>
			<point x="276" y="509" type="curve" smooth="yes"/>
			<point x="147" y="509"/>
			<point x="76" y="408"/>
			<point x="76" y="252" type="curve" smooth="yes"/>
			<point x="76" y="97"/>
			<point x="145" y="-9"/>
			<point x="274" y="-9" type="curve" smooth="yes"/>
			<point x="347" y="-9"/>
			<point x="412" y="41"/>
			<point x="432" y="111" type="curve"/>
		</contour>
		<contour>
			<point x="32" y="273" type="line"/>
			<point x="309" y="273" type="line"/>
			<point x="320" y="333" type="line"/>
			<point x="32" y="333" type="line"/>
		</contour>
		<contour>
			<point x="32" y="161" type="line"/>
			<point x="289" y="161" type="line"/>
			<point x="300" y="221" type="line"/>
			<point x="32" y="221" type="line"/>
		</contour>
	</outline>
</glyph>
<glyph name=".notdef" format="1">
	<advance width="500"/>
	<outline>
		<contour>
			<point x="52" y="0" type="line"/>
			<point x="448" y="0" type="line"/>
			<point x="448" y="500" type="line"/>
			<point x="52" y="500" type="line"/>
		</contour>
		<contour>
			<point x="86" y="34" type="line"/>
			<point x="86" y="467" type="line"/>
			<point x="414" y="467" type="line"/>
			<point x="414" y="34" type="line"/>
		</contour>
		<component base="question" xScale="0.6" yScale="0.6" xOffset="137" yOffset="102"/>
	</outline>
</glyph>
<glyph name="chart.dot" format="1">
	<advance width="170"/>
	<outline>
		<contour>
			<point x="85" y="-62" type="curve" smooth="yes"/>
			<point x="119" y="-62"/>
			<point x="147" y="-34"/>
			<point x="147" y="0" type="curve" smooth="yes"/>
			<point x="147" y="34"/>
			<point x="119" y="62"/>
			<point x="85" y="62" type="curve" smooth="yes"/>
			<point x="51" y="62"/>
			<point x="23" y="34"/>
			<point x="23" y="0" type="curve" smooth="yes"/>
			<point x="23" y="-34"/>
			<point x="51" y="-62"/>
		</contour>
	</outline>
</glyph>
<glyph name="circle.l" format="1">
	<advance width="565"/>
	<outline>
		<contour>
			<point x="282" y="-12" type="curve" smooth="yes"/>
			<point x="430" y="-12"/>
			<point x="545" y="102"/>
			<point x="545" y="250" type="curve" smooth="yes"/>
			<point x="545" y="398"/>
			<point x="430" y="512"/>
			<point x="282" y="512" type="curve" smooth="yes"/>
			<point x="134" y="512"/>
			<point x="20" y="398"/>
			<point x="20" y="250" type="curve" smooth="yes"/>
			<point x="20" y="102"/>
			<point x="134" y="-12"/>
		</contour>
		<contour>
			<point x="211" y="118" type="line"/>
			<point x="211" y="384" type="line"/>
			<point x="264" y="384" type="line"/>
			<point x="264" y="166" type="line"/>
			<point x="384" y="166" type="line"/>
			<point x="384" y="118" type="line"/>
		</contour>
	</outline>
</glyph>
<glyph name="line.up.004" format="1">
	<advance width="350"/>
	<outline>
		<contour>
			<point x="85" y="-37" type="line"/>
			<point x="435" y="-9" type="line"/>
			<point x="435" y="65" type="line"/>
			<point x="85" y="37" type="line"/>
		</contour>
		<component base="chart.dot"/>
	</outline>
</glyph>
<glyph name="line.up.063" format="1">
	<advance width="350"/>
	<outline>
		<contour>
			<point x="85" y="-58" type="line"/>
			<point x="435" y="383" type="line"/>
			<point x="435" y="499" type="line"/>
			<point x="85" y="58" type="line"/>
		</contour>
		<component base="chart.dot"/>
	</outline>
</glyph>
<glyph name="line.up.097" format="1">
	<advance width="350"/>
	<outline>
		<contour>
			<point x="126" y="0" type="line"/>
			<point x="476" y="679" type="line"/>
			<point x="394" y="679" type="line"/>
			<point x="44" y="0" type="line"/>
		</contour>
		<component base="chart.dot"/>
	</outline>
</glyph>
